PathFileType	4	(X/Y/Z)	Patient4_TMGait_0pt3_03_left_09.trc.trc
DataRate	CameraRate	NumFrames	NumMarkers	Units	OrigDataRate	OrigDataStartFrame	OrigNumFrames
52.830188679245	52.830188679245	5	33	mm	52.830188679245	89	       141
Frame#	Time	Sacral			L.Shoulder			Chest			R.Shoulder			Neck			R.ASIS			L.ASIS			R.Thigh.Superior			R.Thigh.Lateral			R.Thigh.Inferior			R.Patella			L.Thigh.Superior			L.Thigh.Lateral			L.Thigh.Inferior			L.Patella			L.Shank.Superior			L.Shank.Lateral			L.Shank.Inferior			R.Shank.Superior			R.Shank.Lateral			R.Shank.Inferior			R.Heel			R.Midfoot.Superior			R.Midfoot.Lateral			R.Toe			L.Heel			L.Midfoot.Lateral			L.Midfoot.Superior			L.Toe			L.Elbow			L.Wrist			R.Elbow			R.Wrist			
		X1	Y1	Z1	X2	Y2	Z2	X3	Y3	Z3	X4	Y4	Z4	X5	Y5	Z5	X6	Y6	Z6	X7	Y7	Z7	X8	Y8	Z8	X9	Y9	Z9	X10	Y10	Z10	X11	Y11	Z11	X12	Y12	Z12	X13	Y13	Z13	X14	Y14	Z14	X15	Y15	Z15	X16	Y16	Z16	X17	Y17	Z17	X18	Y18	Z18	X19	Y19	Z19	X20	Y20	Z20	X21	Y21	Z21	X22	Y22	Z22	X23	Y23	Z23	X24	Y24	Z24	X25	Y25	Z25	X26	Y26	Z26	X27	Y27	Z27	X28	Y28	Z28	X29	Y29	Z29	X30	Y30	Z30	X31	Y31	Z31	X32	Y32	Z32	X33	Y33	Z33	

89	17.715714285714	811.703045969815	1009.596470976514	488.362144286438	1033.293446793846	1435.955517966669	347.676746620185	1099.786530666452	1361.531036175964	524.214401090391	985.163089550624	1435.880347088327	678.827550948101	981.370738118723	1494.331118699884	501.535570118239	1022.858852121340	939.472117170787	637.444805469329	1044.698671352178	958.451978261973	364.471688275301	1080.568029104821	748.045025536932	603.052671449280	1006.521796303946	632.360350115109	657.256640476431	1091.165166314957	586.991022254448	579.022527425172	1099.823313900532	499.126355002938	584.933887288422	1048.338116934897	728.718297503053	383.923501809367	940.059552866649	629.717037205465	313.136790286976	1005.243116637057	536.038979640727	374.149476942444	991.403027893566	461.597723931172	376.365625561288	939.381290252759	402.514278170862	367.493581056427	817.050579548912	325.518157557492	312.134981461079	829.185499799719	199.128633117667	375.058777661055	1074.446795361595	409.168315317709	591.326398792225	1007.772416433403	303.700717251615	655.694752867315	1051.634360111264	209.379300222420	591.786280833650	920.036271184301	44.132771727831	567.648081784950	1092.704681963201	97.295019593452	597.736798287766	1005.811270550648	37.632539860395	638.875712724897	1213.346985210721	44.607425016889	621.077564398707	661.608329787319	76.288207357142	408.828965343093	735.252965481436	55.472541739273	332.098797917691	828.024664564526	102.197806716390	358.307385409497	943.358159430724	36.957025750372	334.972170732824	1146.828983817959	1122.271716235694	204.121111990418	1404.390113109240	1090.135427325484	224.866270732926	855.403696292798	1106.613214650924	766.049042627896	879.997372728574	848.301607312756	798.284700550600	
90	17.734642857143	813.135922562397	1010.015587782566	494.509961781590	1032.122544789949	1436.905462970472	351.447263575304	1100.918314708447	1362.375750376228	527.085114081563	988.127125236548	1436.240434423235	683.115803417502	981.896077946273	1495.082452301199	505.793284096265	1026.038667430257	940.006477098041	640.972365010269	1044.771516515008	959.353755918425	367.845540586450	1082.022044562217	747.330448778975	606.296634737964	1006.920138037321	632.216515942786	660.279262805754	1090.826503332401	586.300153225060	581.611726095055	1098.726739578225	498.297173372844	586.944120825072	1052.323233908239	730.470429815561	386.520793272647	946.145519996737	629.748765467963	315.913531930789	1014.250519599416	536.653026249144	375.786761761843	1000.973813945833	460.791431715726	376.967480483316	946.489037121935	402.480355654601	368.594231766395	821.423668655770	329.773958297131	313.640002741469	830.463075988481	202.491149015584	375.071939707482	1072.419665040005	408.571117861683	592.884277772401	1005.034297420838	303.398640639841	656.856793035481	1047.646520368531	208.979219046838	592.293573048291	914.688924870181	44.195380237743	567.728517426892	1087.354499990090	97.248788074474	597.821457293846	1000.453598662803	37.701477169014	638.986164524969	1208.039248060893	44.246558182751	621.176718267384	659.238681722186	85.807880311958	408.564822324576	731.771042636697	61.465017309460	331.993109445983	826.340814157962	104.288825197972	357.784739896041	937.971814968162	36.212486844435	335.126250777201	1140.295222211850	1119.524683868249	209.624875403977	1396.807548595358	1076.565928108557	228.045690270653	863.338173530489	1105.745574884767	774.285589747700	894.933211669121	848.340948276108	808.078170115341	
91	17.753571428571	814.242617419951	1010.273352611282	500.557328514148	1030.649031664922	1437.664934960683	355.051063194020	1101.834147867928	1362.994915447256	529.710768308080	991.039226427680	1436.414991276995	687.214902841611	982.264123629234	1495.659279812180	509.912039471602	1028.904351820404	940.378502916663	644.319139046509	1044.456859533610	960.053735852818	371.054258373828	1083.151617790129	746.515573663659	609.394711964692	1007.038155396163	631.938813160979	663.133225971780	1090.222121166441	585.544222363277	584.039767197004	1097.383095102728	497.399369970412	588.835295322600	1056.718059434203	732.405614426648	389.154784025273	953.264688127612	629.651773399552	318.621619757479	1024.464361775514	537.439275177746	377.583222324316	1011.867788352540	460.092569954885	377.712670460105	954.901590706607	402.478207233133	369.791767346157	827.175413281355	334.383740903286	315.147207396825	832.694146688207	206.372371879961	375.168783955700	1070.165716886010	407.907135443348	594.367705780323	1002.063433103886	303.029570221031	657.898408090895	1043.525092062169	208.552352301643	592.773524294363	909.273444749785	44.250767218858	567.779932675615	1081.925558703928	97.201712469716	597.898750772268	995.021403542442	37.758534463025	639.071760052359	1202.643669967107	43.931338110935	621.279969035576	657.729708548076	96.774163975480	408.308615359290	728.894890363629	68.677057142562	331.889770477191	825.273010845165	106.953418008275	357.365155257428	932.629213947970	35.323419794320	335.355396280154	1132.933481400402	1116.517165674633	215.069799848209	1387.703829623325	1061.617593276919	231.088223329866	871.789000798479	1104.671484861587	782.530189427121	910.612946410091	848.364700695032	817.644491349908	
92	17.772500000000	815.016042084427	1010.330190263681	506.471798094684	1028.889124324456	1438.177302047195	358.454991321312	1102.507512495656	1363.358102269368	532.080656521034	993.834853021185	1436.386460189940	691.085602165296	982.471574508769	1496.025752598180	513.844990269604	1031.444334907720	940.572665963788	647.477635835487	1043.754821762875	960.520076642160	374.098301879929	1084.051345619177	745.645223123032	612.263566171327	1007.059118024818	631.520915467324	665.770717586635	1089.527911177681	584.742201928413	586.228184306180	1096.005144667315	496.412245581345	590.543262707732	1061.430386892383	734.522377660824	391.887843656556	961.313114112821	629.494989518622	321.286395494053	1035.674285003441	538.468100450880	379.638464907382	1023.885792506005	459.594483300513	378.708754922638	964.472847441094	402.574816309031	371.139346018147	834.215347873494	339.354490755596	316.691354523646	835.847819312127	210.794849001900	375.395450575019	1067.852138252963	407.152453151174	595.721871453662	999.006770169370	302.601136218205	658.812422944216	1039.338914427215	208.078661161565	593.191596790679	903.775704825258	44.302427737522	567.808274941783	1076.415158933750	97.141958879785	597.957427967385	989.503142827632	37.803365791817	639.134266114177	1197.156819680911	43.641836689726	621.382918389080	657.176052985818	109.110949341291	408.107272004088	726.724322863533	77.130241868197	331.821540968035	824.844765014320	110.276847243878	357.089366958406	927.401546122895	34.325217911602	335.635490620211	1124.769586812109	1113.223136316286	220.431715173670	1376.901151795777	1045.339256807805	233.990671317525	880.751728448895	1103.350905934149	790.662811955692	927.088875973080	848.377986999462	826.876419652759	
93	17.791428571429	815.461408041915	1010.153534378368	512.227126616857	1026.859299449311	1438.397581700483	361.629648847602	1102.917528346230	1363.448116494656	534.187255255567	996.455255809928	1436.147760824201	694.694591159111	982.516239529637	1496.154969084626	517.546788104281	1033.657509188622	940.573344397137	650.442682986194	1042.679134859168	960.738552228160	376.983323085864	1084.822483516112	744.755700374037	614.847802801115	1007.155060789605	630.952672998418	668.156445667044	1088.923633334744	583.906878987302	588.125561960680	1094.809518105129	495.314638964277	592.024411643618	1066.343450091729	736.820233420000	394.774706458583	970.129299645959	629.360951846028	323.935570319484	1047.612617095770	539.809539764669	382.036686475782	1036.769483259435	459.389432409489	380.046410420809	974.995357884952	402.840527480984	372.679550699781	842.382415340352	344.673317917279	318.317530730537	839.862522387949	215.747770833408	375.799823375754	1065.648857055464	406.285560967733	596.905992092635	996.008593063677	302.122568581554	659.598169156608	1035.160874798472	207.544981465070	593.524970308046	898.198059865466	44.357958597042	567.822351929163	1070.834154962373	97.066720905354	597.992999419247	983.904488830678	37.837729543126	639.176520980610	1191.588391124212	43.366221821594	621.482108670740	657.646720928049	122.616043849595	408.032245390287	725.351309636941	86.748573364871	331.834384227136	825.076206678861	114.307622126064	356.991487377623	922.403218025118	33.298115686379	335.922940029390	1115.855101995248	1109.637377191809	225.689860526702	1364.231795364617	1027.810013997490	236.749106607066	890.184609191597	1101.770284971035	798.554714391823	944.395694580531	848.428095669188	835.660615548353	
